<?xml version="1.0" encoding="UTF-8"?>
<svg version="1.1" xmlns="http://www.w3.org/2000/svg" width="160" height="160">
<path d="M0 0 C3.85722492 2.55389447 5.84402757 4.4811987 7 9 C7.29928196 13.26476789 7.3393848 16.34471125 5 20 C10.74654892 23.9113858 14.94954031 24.53794327 21.8125 24.5625 C32.13103656 24.8677489 40.46364668 25.45044237 48.2421875 32.9140625 C56.20794347 42.36675958 56.19428392 52.25661632 56 64 C57.134375 64.144375 58.26875 64.28875 59.4375 64.4375 C63 65 63 65 64 66 C64.11349161 68.86094217 64.16418492 71.69683456 64.16796875 74.55859375 C64.17129715 75.41808121 64.17462555 76.27756866 64.17805481 77.1631012 C64.1831277 78.98478661 64.18546302 80.80648136 64.18530273 82.62817383 C64.18748803 85.4221929 64.20563644 88.21581657 64.22460938 91.00976562 C64.2275434 92.77604031 64.22952814 94.54231688 64.23046875 96.30859375 C64.23765427 97.14821152 64.24483978 97.98782928 64.25224304 98.85289001 C64.22882181 104.77117819 64.22882181 104.77117819 62 107 C58.875 107.125 58.875 107.125 56 107 C56.02320313 107.63164063 56.04640625 108.26328125 56.0703125 108.9140625 C56.27271519 118.94745293 55.92876399 129.07421097 51 138 C50.34 138 49.68 138 49 138 C48.68675781 138.89138672 48.68675781 138.89138672 48.3671875 139.80078125 C46.47855048 142.8387888 44.33182479 143.66249408 41.125 145.1875 C39.55105469 145.95126953 39.55105469 145.95126953 37.9453125 146.73046875 C33.07224903 148.83092714 29.15108379 149.13298681 23.81982422 149.16113281 C23.10378525 149.16609772 22.38774628 149.17106262 21.65000916 149.17617798 C19.28489206 149.19076136 16.91984215 149.19759692 14.5546875 149.203125 C12.9028422 149.20888173 11.2509969 149.21463939 9.59915161 149.22039795 C6.13413178 149.23089855 2.66913506 149.23674667 -0.79589844 149.24023438 C-5.21392748 149.24570236 -9.63164574 149.26969781 -14.04957771 149.29820633 C-17.46417093 149.31693023 -20.87869095 149.32204358 -24.29333115 149.32357025 C-25.92066004 149.32657781 -27.54798824 149.33454146 -29.17526627 149.34775543 C-41.40609401 149.43994477 -52.4879773 149.13086298 -61.84765625 140.24609375 C-68.79535581 132.95600243 -69.31839698 125.68472554 -69.125 116 C-69.11597656 115.12988281 -69.10695313 114.25976562 -69.09765625 113.36328125 C-69.07434619 111.2420658 -69.03848579 109.12099438 -69 107 C-70.134375 107.020625 -71.26875 107.04125 -72.4375 107.0625 C-76 107 -76 107 -77 106 C-77.08871273 102.97022196 -77.1151935 99.96332978 -77.09765625 96.93359375 C-77.0962413 96.02497086 -77.09482635 95.11634796 -77.09336853 94.18019104 C-77.08775193 91.26592779 -77.07519665 88.35174019 -77.0625 85.4375 C-77.05748714 83.46679798 -77.05292386 81.49609476 -77.04882812 79.52539062 C-77.03777711 74.68356441 -77.02050138 69.84179505 -77 65 C-73.535 64.505 -73.535 64.505 -70 64 C-69.96261719 62.96101563 -69.92523438 61.92203125 -69.88671875 60.8515625 C-69.40726339 49.82144031 -68.98250558 40.06836026 -60.9609375 31.69140625 C-52.8114488 24.66206639 -43.22924543 24.79328839 -32.98828125 24.5703125 C-27.89664059 24.37603686 -24.50490172 23.6000513 -20 21 C-19.34 21 -18.68 21 -18 21 C-18.53625 20.030625 -19.0725 19.06125 -19.625 18.0625 C-21.62234925 13.37348485 -20.83780977 9.637869 -19 5 C-15.05129277 -1.91023765 -7.09819998 -1.19124884 0 0 Z " fill="#84B6BD" transform="translate(87,2)"/>
<path d="M0 0 C3.85722492 2.55389447 5.84402757 4.4811987 7 9 C7.29928196 13.26476789 7.3393848 16.34471125 5 20 C7.31 21.32 9.62 22.64 12 24 C10.0776234 29.19041683 5.64941406 31.93704427 1.1875 34.8125 C-3.06284398 36.39596148 -6.52202344 36.64544997 -11 36 C-12.33509809 35.36864337 -13.64775172 34.68822722 -14.9375 33.96875 C-21.08803367 31.12540518 -27.05348066 31.68372239 -33.6875 32.0625 C-34.88439453 32.10310547 -36.08128906 32.14371094 -37.31445312 32.18554688 C-44.788877 32.53077625 -50.92335389 33.18647823 -56.25 38.9375 C-66.08080338 51.21313668 -60.67406195 76.94944985 -60 91.625 C-59.85571953 94.77689889 -59.71236729 97.92882542 -59.57202148 101.0809021 C-59.48531851 103.02780481 -59.39645395 104.97461306 -59.30493164 106.92129517 C-59.0560275 112.50454801 -58.98685909 118.05276143 -59.09448242 123.64120483 C-58.95554638 127.10980411 -58.03945435 129.21274572 -56 132 C-51.20957515 135.74902814 -47.10916446 138 -41 138 C-41 138.66 -41 139.32 -41 140 C-40.01 139.67 -39.02 139.34 -38 139 C-35.94637394 138.92575455 -33.89031311 138.91342317 -31.83544922 138.93408203 C-29.92733963 138.94871994 -29.92733963 138.94871994 -27.98068237 138.96365356 C-26.96072489 138.97469809 -26.96072489 138.97469809 -25.9201622 138.98596573 C-23.78353352 139.00803096 -21.64699424 139.02208455 -19.51028442 139.03366089 C-13.4351174 139.06719919 -7.36009645 139.10854977 -1.28515625 139.17138672 C2.43358864 139.2092759 6.15218032 139.23213333 9.87108994 139.24569321 C11.28156669 139.2536933 12.69202428 139.26722432 14.10239029 139.28662491 C24.68927355 139.42961162 33.49518472 138.84533912 42 132 C43.38868516 129.89960669 43.38868516 129.89960669 44 128 C44.66 128 45.32 128 46 128 C45.814375 127.401875 45.62875 126.80375 45.4375 126.1875 C45 124 45 124 46 121 C46.14889747 119.15533558 46.2479101 117.30642725 46.31640625 115.45703125 C46.35830078 114.38388672 46.40019531 113.31074219 46.44335938 112.20507812 C46.48267578 111.08552734 46.52199219 109.96597656 46.5625 108.8125 C46.62727539 107.11577148 46.62727539 107.11577148 46.69335938 105.38476562 C46.79949099 102.58996646 46.90154385 99.79507838 47 97 C47.66 97 48.32 97 49 97 C49.99 102.94 49.99 102.94 51 109 C51.66 109 52.32 109 53 109 C52.98952637 108.19481934 52.97905273 107.38963867 52.96826172 106.56005859 C52.93365896 103.49968578 52.90885313 100.43941439 52.89013672 97.37890625 C52.87543224 95.4322232 52.84998798 93.48563053 52.82421875 91.5390625 C52.77966353 82.8062386 53.52280466 74.60170677 55 66 C57.8125 64.875 57.8125 64.875 61 64 C61.99 64.66 62.98 65.32 64 66 C64.29152022 68.95611059 64.39583639 71.69941045 64.36328125 74.65625 C64.36402901 75.94335876 64.36402901 75.94335876 64.36479187 77.25646973 C64.36244945 79.07220778 64.35271102 80.88794896 64.33618164 82.70361328 C64.31259399 85.48890095 64.31561857 88.27323166 64.32226562 91.05859375 C64.3166889 92.82031823 64.30957905 94.58203866 64.30078125 96.34375 C64.30169266 97.18023071 64.30260406 98.01671143 64.30354309 98.87854004 C64.23101979 104.76898021 64.23101979 104.76898021 62 107 C58.875 107.125 58.875 107.125 56 107 C56.02320313 107.63164063 56.04640625 108.26328125 56.0703125 108.9140625 C56.27271519 118.94745293 55.92876399 129.07421097 51 138 C50.34 138 49.68 138 49 138 C48.68675781 138.89138672 48.68675781 138.89138672 48.3671875 139.80078125 C46.47855048 142.8387888 44.33182479 143.66249408 41.125 145.1875 C39.55105469 145.95126953 39.55105469 145.95126953 37.9453125 146.73046875 C33.07224903 148.83092714 29.15108379 149.13298681 23.81982422 149.16113281 C23.10378525 149.16609772 22.38774628 149.17106262 21.65000916 149.17617798 C19.28489206 149.19076136 16.91984215 149.19759692 14.5546875 149.203125 C12.9028422 149.20888173 11.2509969 149.21463939 9.59915161 149.22039795 C6.13413178 149.23089855 2.66913506 149.23674667 -0.79589844 149.24023438 C-5.21392748 149.24570236 -9.63164574 149.26969781 -14.04957771 149.29820633 C-17.46417093 149.31693023 -20.87869095 149.32204358 -24.29333115 149.32357025 C-25.92066004 149.32657781 -27.54798824 149.33454146 -29.17526627 149.34775543 C-41.40609401 149.43994477 -52.4879773 149.13086298 -61.84765625 140.24609375 C-68.79535581 132.95600243 -69.31839698 125.68472554 -69.125 116 C-69.11597656 115.12988281 -69.10695313 114.25976562 -69.09765625 113.36328125 C-69.07434619 111.2420658 -69.03848579 109.12099438 -69 107 C-70.134375 107.020625 -71.26875 107.04125 -72.4375 107.0625 C-76 107 -76 107 -77 106 C-77.08871273 102.97022196 -77.1151935 99.96332978 -77.09765625 96.93359375 C-77.0962413 96.02497086 -77.09482635 95.11634796 -77.09336853 94.18019104 C-77.08775193 91.26592779 -77.07519665 88.35174019 -77.0625 85.4375 C-77.05748714 83.46679798 -77.05292386 81.49609476 -77.04882812 79.52539062 C-77.03777711 74.68356441 -77.02050138 69.84179505 -77 65 C-73.535 64.505 -73.535 64.505 -70 64 C-69.96261719 62.96101563 -69.92523438 61.92203125 -69.88671875 60.8515625 C-69.40726339 49.82144031 -68.98250558 40.06836026 -60.9609375 31.69140625 C-52.8114488 24.66206639 -43.22924543 24.79328839 -32.98828125 24.5703125 C-27.89664059 24.37603686 -24.50490172 23.6000513 -20 21 C-19.34 21 -18.68 21 -18 21 C-18.53625 20.030625 -19.0725 19.06125 -19.625 18.0625 C-21.62234925 13.37348485 -20.83780977 9.637869 -19 5 C-15.05129277 -1.91023765 -7.09819998 -1.19124884 0 0 Z " fill="#8CAAA8" transform="translate(87,2)"/>
<path d="M0 0 C0.0493521 5.51756476 0.08569662 11.03500171 0.10986328 16.55273438 C0.11993534 18.43068682 0.13359362 20.30862353 0.15087891 22.18652344 C0.17507453 24.8822009 0.18647083 27.57767146 0.1953125 30.2734375 C0.20563507 31.11619232 0.21595764 31.95894714 0.22659302 32.82723999 C0.22699144 34.88621247 0.12257588 36.94467935 0 39 C-2 41 -2 41 -5.125 41.125 C-6.07375 41.08375 -7.0225 41.0425 -8 41 C-7.97679687 41.63164063 -7.95359375 42.26328125 -7.9296875 42.9140625 C-7.72728481 52.94745293 -8.07123601 63.07421097 -13 72 C-13.66 72 -14.32 72 -15 72 C-15.20882812 72.59425781 -15.41765625 73.18851562 -15.6328125 73.80078125 C-17.52144952 76.8387888 -19.66817521 77.66249408 -22.875 79.1875 C-23.92429687 79.69667969 -24.97359375 80.20585937 -26.0546875 80.73046875 C-30.92775097 82.83092714 -34.84891621 83.13298681 -40.18017578 83.16113281 C-40.89621475 83.16609772 -41.61225372 83.17106262 -42.34999084 83.17617798 C-44.71510794 83.19076136 -47.08015785 83.19759692 -49.4453125 83.203125 C-51.0971578 83.20888173 -52.7490031 83.21463939 -54.40084839 83.22039795 C-57.86586822 83.23089855 -61.33086494 83.23674667 -64.79589844 83.24023438 C-69.21392748 83.24570236 -73.63164574 83.26969781 -78.04957771 83.29820633 C-81.46417093 83.31693023 -84.87869095 83.32204358 -88.29333115 83.32357025 C-89.92066004 83.32657781 -91.54798824 83.33454146 -93.17526627 83.34775543 C-105.40609401 83.43994477 -116.4879773 83.13086298 -125.84765625 74.24609375 C-132.74603726 67.00775146 -133.29778968 60.73926748 -133.13671875 50.98828125 C-132.95213181 46.95373807 -132.53372374 43.00292806 -132 39 C-131.67 40.32 -131.34 41.64 -131 43 C-129.02 42.505 -129.02 42.505 -127 42 C-127.020625 40.783125 -127.04125 39.56625 -127.0625 38.3125 C-127.06824116 35.08022678 -126.78766315 32.15065259 -126 29 C-125.67 29 -125.34 29 -125 29 C-124.98598145 30.20160767 -124.98598145 30.20160767 -124.97167969 31.42749023 C-124.91761061 35.09809119 -124.8340326 38.76746762 -124.75 42.4375 C-124.73582031 43.69755859 -124.72164062 44.95761719 -124.70703125 46.25585938 C-124.51867785 53.46979441 -124.11203508 59.86244946 -120 66 C-115.3560566 69.85348495 -111.04072038 72 -105 72 C-105 72.66 -105 73.32 -105 74 C-103.515 73.505 -103.515 73.505 -102 73 C-99.94637394 72.92575455 -97.89031311 72.91342317 -95.83544922 72.93408203 C-93.92733963 72.94871994 -93.92733963 72.94871994 -91.98068237 72.96365356 C-91.30071072 72.97101658 -90.62073906 72.97837959 -89.9201622 72.98596573 C-87.78353352 73.00803096 -85.64699424 73.02208455 -83.51028442 73.03366089 C-77.4351174 73.06719919 -71.36009645 73.10854977 -65.28515625 73.17138672 C-61.56641136 73.2092759 -57.84781968 73.23213333 -54.12891006 73.24569321 C-52.71843331 73.2536933 -51.30797572 73.26722432 -49.89760971 73.28662491 C-39.31072645 73.42961162 -30.50481528 72.84533912 -22 66 C-20.61131484 63.89960669 -20.61131484 63.89960669 -20 62 C-19.34 62 -18.68 62 -18 62 C-18.2784375 61.1028125 -18.2784375 61.1028125 -18.5625 60.1875 C-19 58 -19 58 -18 55 C-17.85110253 53.15533558 -17.7520899 51.30642725 -17.68359375 49.45703125 C-17.64169922 48.38388672 -17.59980469 47.31074219 -17.55664062 46.20507812 C-17.51732422 45.08552734 -17.47800781 43.96597656 -17.4375 42.8125 C-17.37272461 41.11577148 -17.37272461 41.11577148 -17.30664062 39.38476562 C-17.20050901 36.58996646 -17.09845615 33.79507838 -17 31 C-16.34 31 -15.68 31 -15 31 C-14.01 36.94 -14.01 36.94 -13 43 C-12.34 43 -11.68 43 -11 43 C-11.01047363 42.19481934 -11.02094727 41.38963867 -11.03173828 40.56005859 C-11.06634104 37.49968578 -11.09114687 34.43941439 -11.10986328 31.37890625 C-11.12456776 29.4322232 -11.15001202 27.48563053 -11.17578125 25.5390625 C-11.26791275 7.48128894 -11.26791275 7.48128894 -9 0 C-5.72509945 -2.80201035 -3.6300713 -1.81503565 0 0 Z " fill="#0A4552" transform="translate(151,68)"/>
<path d="M0 0 C1.03613937 0.00707474 2.07227875 0.01414948 3.13981628 0.0214386 C6.44160872 0.04937518 9.74169091 0.11211495 13.04296875 0.17578125 C15.28448068 0.20086495 17.52601925 0.22367799 19.76757812 0.24414062 C25.25578955 0.29919919 30.74300696 0.38281844 36.23046875 0.48828125 C36.72546875 1.97328125 36.72546875 1.97328125 37.23046875 3.48828125 C37.89046875 3.48828125 38.55046875 3.48828125 39.23046875 3.48828125 C41.57215639 7.00081271 41.72670552 8.35297481 41.23046875 12.48828125 C39.07956424 15.8258917 38.02634076 17.22299058 34.23046875 18.48828125 C32.87143228 18.58830821 31.50815882 18.63646191 30.14550781 18.64941406 C28.91843109 18.66382538 28.91843109 18.66382538 27.66656494 18.67852783 C26.3446817 18.68490265 26.3446817 18.68490265 24.99609375 18.69140625 C24.08470642 18.69710632 23.17331909 18.7028064 22.23431396 18.7086792 C20.30433308 18.71812634 18.37433609 18.72466205 16.44433594 18.72851562 C13.50556903 18.73819855 10.56750836 18.7692152 7.62890625 18.80078125 C5.75130622 18.80731391 3.87370121 18.81256335 1.99609375 18.81640625 C1.12293518 18.82875305 0.24977661 18.84109985 -0.64984131 18.8538208 C-6.11746412 18.83406677 -9.92445682 18.0749642 -14.76953125 15.48828125 C-16.81460633 13.01714887 -16.7754062 11.76440408 -16.70703125 8.55078125 C-14.00669404 -0.2703203 -7.96528051 -0.20509168 0 0 Z " fill="#110D0E" transform="translate(67.76953125,106.51171875)"/>
<path d="M0 0 C5.00134802 2.22493429 8.68286046 5.21810999 10.8046875 10.3515625 C11.88459534 16.20982362 11.12153021 21.43578391 8.12109375 26.58984375 C5.21635313 30.47719693 2.25541123 32.89979777 -2.58984375 33.79296875 C-8.50012847 34.07441088 -13.43394165 32.94733218 -18.1953125 29.3515625 C-22.27283877 24.22851668 -23.56625996 20.04596083 -23.47265625 13.62890625 C-22.86922211 8.67394708 -19.68449571 5.64832305 -16.0703125 2.5390625 C-11.00754588 -1.31304253 -6.15013984 -1.81658935 0 0 Z " fill="#2D7E93" transform="translate(56.1953125,57.6484375)"/>
<path d="M0 0 C5.03235675 2.34150933 8.24947088 5.24112927 10.76953125 10.28125 C11.49501693 17.45285434 11.15271814 22.47648898 6.76953125 28.28125 C1.81592258 32.8723995 -2.16078914 33.63895733 -8.7265625 33.5625 C-13.62180629 33.01264422 -16.30561385 30.30886655 -19.48046875 26.78125 C-22.88396697 21.91910969 -23.95511672 18.31219116 -23.23046875 12.28125 C-19.78671648 2.15256685 -10.26089856 -3.3064892 0 0 Z " fill="#25799B" transform="translate(116.23046875,57.71875)"/>
<path d="M0 0 C10.52074428 0.02130831 18.88471888 0.56474039 26.8046875 8.1640625 C34.77044347 17.61675958 34.75678392 27.50661632 34.5625 39.25 C36.0475 39.745 36.0475 39.745 37.5625 40.25 C36.0775 40.745 36.0775 40.745 34.5625 41.25 C32.86270922 51.14787977 32.30451602 60.57959493 32.4375 70.625 C32.44757142 71.95832645 32.45668977 73.29166045 32.46484375 74.625 C32.488094 77.83353441 32.52076657 81.04166204 32.5625 84.25 C31.2425 84.25 29.9225 84.25 28.5625 84.25 C27.66515371 80.35085474 27.3738178 76.63265702 27.24609375 72.63671875 C27.20419922 71.38955078 27.16230469 70.14238281 27.11914062 68.85742188 C27.07982422 67.56384766 27.04050781 66.27027344 27 64.9375 C26.95681641 63.62458984 26.91363281 62.31167969 26.86914062 60.95898438 C26.76322773 57.72275712 26.66115115 54.48645542 26.5625 51.25 C26.2325 51.25 25.9025 51.25 25.5625 51.25 C25.54791748 50.44369141 25.53333496 49.63738281 25.51831055 48.80664062 C25.44341538 45.12063378 25.3468904 41.43549163 25.25 37.75 C25.21616211 35.84734375 25.21616211 35.84734375 25.18164062 33.90625 C24.84460555 22.13744965 24.84460555 22.13744965 18.875 12.3125 C12.56198498 8.3817548 5.75382826 9.2080297 -1.44921875 9.28125 C-5.50539317 9.23883249 -9.4189513 8.78580649 -13.4375 8.25 C-13.7675 9.24 -14.0975 10.23 -14.4375 11.25 C-20.90774863 14.75471801 -28.22442016 16.34411995 -35.4375 14.25 C-35.4375 13.92 -35.4375 13.59 -35.4375 13.25 C-34.72464844 13.21261719 -34.01179688 13.17523438 -33.27734375 13.13671875 C-25.01719907 12.56973708 -19.23361104 11.54230986 -13.5625 5.125 C-12.51275689 3.83988848 -11.46911031 2.54971243 -10.4375 1.25 C-8.19020513 -0.99729487 -3.01289032 0.00884253 0 0 Z " fill="#9AB3AF" transform="translate(108.4375,26.75)"/>
<path d="M0 0 C1.20527344 -0.0103125 2.41054687 -0.020625 3.65234375 -0.03125 C7.60981763 0.58526369 9.2413982 1.71493417 12.0625 4.5 C14.31198916 8.46338566 14.46444509 11.99821502 14.0625 16.5 C13.19921875 19.1875 13.19921875 19.1875 11.0625 21.5 C7.55677333 22.22366099 4.12779274 22.10500193 0.5625 22 C-0.40042969 22.00257812 -1.36335938 22.00515625 -2.35546875 22.0078125 C-9.39883469 21.90957867 -9.39883469 21.90957867 -11.68164062 20.17382812 C-13.77883877 17.37865113 -13.82276528 14.94204156 -13.9375 11.5 C-11.37760355 3.55084786 -8.54598462 -0.07296465 0 0 Z " fill="#FECA35" transform="translate(79.9375,1.5)"/>
<path d="M0 0 C1.67835937 0.05414062 1.67835937 0.05414062 3.390625 0.109375 C9.01258624 0.3643088 12.62828052 0.6380596 17.375 3.875 C15.4526234 9.06541683 11.02441406 11.81204427 6.5625 14.6875 C1.36206816 16.62491579 -2.98838128 16.82842016 -8.25 14.92578125 C-13.22789239 12.57757904 -17.04425603 10.05253463 -20.625 5.875 C-19.625 2.875 -19.625 2.875 -16.8515625 1.1796875 C-11.40634771 -0.94669806 -5.73108696 -0.30583527 0 0 Z " fill="#69527E" transform="translate(81.625,22.125)"/>
<path d="M0 0 C2.59824326 2.59824326 2.24817394 4.40327913 2.27789307 7.94334412 C2.2738446 8.754814 2.26979614 9.56628387 2.265625 10.40234375 C2.26753845 11.23584854 2.2694519 12.06935333 2.27142334 12.92811584 C2.2727855 14.69255881 2.26908689 16.45701179 2.26074219 18.22143555 C2.25005638 20.92324363 2.26062932 23.62438474 2.2734375 26.32617188 C2.27211565 28.03906397 2.26955272 29.75195565 2.265625 31.46484375 C2.26967346 32.2742894 2.27372192 33.08373505 2.27789307 33.91770935 C2.24546956 37.79612577 2.20063048 39.69905428 0 43 C-3.0625 43.25 -3.0625 43.25 -6 43 C-7 42 -7 42 -7.11352539 38.12280273 C-7.11336621 36.39305833 -7.10766849 34.66330919 -7.09765625 32.93359375 C-7.0962413 32.02497086 -7.09482635 31.11634796 -7.09336853 30.18019104 C-7.08775193 27.26592779 -7.07519665 24.35174019 -7.0625 21.4375 C-7.05748714 19.46679798 -7.05292386 17.49609476 -7.04882812 15.52539062 C-7.03777711 10.68356441 -7.02050138 5.84179505 -7 1 C-4.48718205 -0.25640898 -2.78302919 -0.20872719 0 0 Z " fill="#E51B18" transform="translate(17,66)"/>
<path d="M0 0 C3.7854464 1.26181547 4.32215868 2.99299935 6.05859375 6.43359375 C6.58646484 7.51833984 6.58646484 7.51833984 7.125 8.625 C7.48464844 9.32496094 7.84429687 10.02492188 8.21484375 10.74609375 C8.55902344 11.44089844 8.90320313 12.13570312 9.2578125 12.8515625 C9.5686377 13.47885254 9.87946289 14.10614258 10.19970703 14.75244141 C11 17 11 17 12 24 C5.07 24 -1.86 24 -9 24 C-10.07728569 19.69085724 -9.9893141 19.22054133 -8.1640625 15.48828125 C-7.75929688 14.64845703 -7.35453125 13.80863281 -6.9375 12.94335938 C-6.504375 12.07517578 -6.07125 11.20699219 -5.625 10.3125 C-5.19960937 9.43271484 -4.77421875 8.55292969 -4.3359375 7.64648438 C-1.1896734 1.1896734 -1.1896734 1.1896734 0 0 Z " fill="#BE4947" transform="translate(79,76)"/>
<path d="M0 0 C3.0625 1.9375 3.0625 1.9375 5 5 C5.90731802 9.4798827 5.53516889 12.8831258 3.5625 17 C-0.08592888 19.84755425 -3.40440413 20.56451091 -8 20 C-11.12766096 18.3453246 -13.39710419 16.20579162 -15 13 C-15.39447548 8.81855989 -15.45035186 6.69053952 -13.125 3.125 C-9.25066951 -0.74933049 -5.26519502 -0.77162341 0 0 Z " fill="#E8F9FA" transform="translate(115,65)"/>
<path d="M0 0 C2.57866282 0.6298701 3.70080431 1.22910257 5.5078125 3.14453125 C7.66952993 7.10767986 8.02943979 9.1364686 7.3828125 13.58203125 C6.11282931 16.43949342 5.0990122 18.06340388 2.5703125 19.89453125 C-0.43958742 20.8404998 -2.46916786 21.022754 -5.6171875 20.58203125 C-8.54202617 18.75655189 -11.05147955 16.71344714 -12.6171875 13.58203125 C-13.12031678 9.22157749 -12.86255514 7.03187192 -10.7421875 3.14453125 C-7.6383661 -0.14551944 -4.35742746 -0.27965579 0 0 Z " fill="#E9FBFB" transform="translate(52.6171875,64.41796875)"/>
<path d="M0 0 C2.60704898 2.60704898 2.23905333 4.47338241 2.265625 8.02734375 C2 10 2 10 0 13 C-2.15478516 13.34057617 -2.15478516 13.34057617 -4.7890625 13.29296875 C-5.73007813 13.28330078 -6.67109375 13.27363281 -7.640625 13.26367188 C-8.62546875 13.23853516 -9.6103125 13.21339844 -10.625 13.1875 C-12.11386719 13.16719727 -12.11386719 13.16719727 -13.6328125 13.14648438 C-16.08908072 13.11105743 -18.54427285 13.06166196 -21 13 C-23.28146325 8.68969227 -23.16172439 5.85173177 -23 1 C-22.34 1.66 -21.68 2.32 -21 3 C-18.86747907 3.27714896 -18.86747907 3.27714896 -16.4296875 3.1953125 C-15.53378906 3.18886719 -14.63789062 3.18242187 -13.71484375 3.17578125 C-12.77769531 3.15902344 -11.84054688 3.14226563 -10.875 3.125 C-9.93011719 3.11597656 -8.98523438 3.10695313 -8.01171875 3.09765625 C-5.67422708 3.07404522 -3.33723877 3.04111516 -1 3 C-0.67 2.01 -0.34 1.02 0 0 Z " fill="#FB9000" transform="translate(91,10)"/>
<path d="M0 0 C1.03613937 0.00707474 2.07227875 0.01414948 3.13981628 0.0214386 C6.44160872 0.04937518 9.74169091 0.11211495 13.04296875 0.17578125 C15.28448068 0.20086495 17.52601925 0.22367799 19.76757812 0.24414062 C25.25578955 0.29919919 30.74300696 0.38281844 36.23046875 0.48828125 C36.72546875 1.97328125 36.72546875 1.97328125 37.23046875 3.48828125 C37.89046875 3.48828125 38.55046875 3.48828125 39.23046875 3.48828125 C41.57215639 7.00081271 41.72670552 8.35297481 41.23046875 12.48828125 C39.07956424 15.8258917 38.02634076 17.22299058 34.23046875 18.48828125 C32.83391416 18.57417428 31.43361098 18.6060084 30.03442383 18.60180664 C29.19377884 18.60173111 28.35313385 18.60165558 27.48701477 18.60157776 C26.5837999 18.59641647 25.68058502 18.59125519 24.75 18.5859375 C23.82201096 18.58452255 22.89402191 18.5831076 21.93791199 18.58164978 C18.97289817 18.57605062 16.00795976 18.56349829 13.04296875 18.55078125 C11.03320422 18.54576614 9.0234385 18.54120325 7.01367188 18.53710938 C2.08590843 18.52608146 -2.84179862 18.50881742 -7.76953125 18.48828125 C-8.09953125 17.82828125 -8.42953125 17.16828125 -8.76953125 16.48828125 C-8.21020905 16.4801944 -7.65088684 16.47210754 -7.07461548 16.46377563 C-1.2672808 16.37789776 4.5397059 16.27840235 10.34667969 16.17089844 C12.51556568 16.13255134 14.68451652 16.0977087 16.85351562 16.06640625 C19.96638207 16.02087987 23.07879981 15.96286552 26.19140625 15.90234375 C27.16540375 15.89079254 28.13940125 15.87924133 29.14291382 15.86734009 C30.04369659 15.8474704 30.94447937 15.82760071 31.87255859 15.80712891 C33.06502701 15.7871434 33.06502701 15.7871434 34.28158569 15.76675415 C36.46512247 15.65361117 36.46512247 15.65361117 38.23046875 13.48828125 C38.47300688 11.27755148 38.47300688 11.27755148 38.35546875 8.86328125 C38.33742187 8.04601562 38.319375 7.22875 38.30078125 6.38671875 C38.27757812 5.76023437 38.254375 5.13375 38.23046875 4.48828125 C35.43972712 3.55803404 33.709636 3.35239946 30.82250977 3.32714844 C29.93471329 3.31754089 29.04691681 3.30793335 28.13221741 3.29803467 C27.17592941 3.29378479 26.21964142 3.28953491 25.234375 3.28515625 C24.24928452 3.27945618 23.26419403 3.2737561 22.24925232 3.2678833 C20.16544671 3.25843691 18.08162619 3.25190075 15.99780273 3.24804688 C12.80881794 3.23832954 9.62047447 3.20729779 6.43164062 3.17578125 C4.40755591 3.16925224 2.38346659 3.16400137 0.359375 3.16015625 C-1.07202065 3.14163605 -1.07202065 3.14163605 -2.53233337 3.1227417 C-3.86875633 3.12724335 -3.86875633 3.12724335 -5.23217773 3.13183594 C-6.40441139 3.12636749 -6.40441139 3.12636749 -7.60032654 3.12078857 C-10.36281001 3.58879071 -11.7351664 4.58959471 -13.76953125 6.48828125 C-14.57375205 9.08683858 -14.57375205 9.08683858 -14.76953125 11.48828125 C-15.42953125 11.48828125 -16.08953125 11.48828125 -16.76953125 11.48828125 C-16.51800103 7.88301471 -15.98334515 5.79305849 -13.8918457 2.81176758 C-9.34364136 -0.57280203 -5.52426266 -0.14223985 0 0 Z " fill="#296B76" transform="translate(67.76953125,106.51171875)"/>
<path d="M0 0 C0.66 0.33 1.32 0.66 2 1 C2.02464775 6.53588533 2.04283496 12.071739 2.05493164 17.60766602 C2.05997244 19.4924373 2.06680498 21.37720465 2.07543945 23.26196289 C2.08751617 25.96501636 2.09323068 28.66801831 2.09765625 31.37109375 C2.10281754 32.21900986 2.10797882 33.06692596 2.11329651 33.9405365 C2.11349195 35.96071068 2.06206211 37.98077934 2 40 C1 41 1 41 -2.5625 41.0625 C-3.696875 41.041875 -4.83125 41.02125 -6 41 C-7.3308911 38.33821779 -7.11268993 36.31260604 -7.09765625 33.3359375 C-7.09443359 32.21445313 -7.09121094 31.09296875 -7.08789062 29.9375 C-7.07951172 28.761875 -7.07113281 27.58625 -7.0625 26.375 C-7.05798828 25.19164063 -7.05347656 24.00828125 -7.04882812 22.7890625 C-7.03701467 19.85932493 -7.02054258 16.92968728 -7 14 C-6.67 14 -6.34 14 -6 14 C-6 16.64 -6 19.28 -6 22 C-4.35 22 -2.7 22 -1 22 C-0.08839714 14.64206267 0.11459026 7.41017023 0 0 Z " fill="#640908" transform="translate(149,67)"/>
<path d="M0 0 C0.93134766 0.01804687 1.86269531 0.03609375 2.82226562 0.0546875 C5.11174197 0.10165112 7.39908184 0.16730525 9.6875 0.25 C9.6875 0.58 9.6875 0.91 9.6875 1.25 C6.0575 1.25 2.4275 1.25 -1.3125 1.25 C-1.3125 5.21 -1.3125 9.17 -1.3125 13.25 C2.3175 13.25 5.9475 13.25 9.6875 13.25 C9.6875 13.58 9.6875 13.91 9.6875 14.25 C6.10602332 14.53430094 2.52293057 14.7714288 -1.0625 15 C-2.58617188 15.12181641 -2.58617188 15.12181641 -4.140625 15.24609375 C-11.63966777 15.69011602 -11.63966777 15.69011602 -15.01171875 13.484375 C-16.3125 11.25 -16.3125 11.25 -16.375 7.75 C-13.81232992 -0.69173673 -7.57168773 -0.27825284 0 0 Z " fill="#131011" transform="translate(68.3125,108.75)"/>
<path d="M0 0 C4.03888748 2.45094881 5.38713461 5.06836935 6.765625 9.546875 C7.14510413 11.10342113 7.50806045 12.66453458 7.828125 14.234375 C6.178125 14.234375 4.528125 14.234375 2.828125 14.234375 C2.35375 13.1 1.879375 11.965625 1.390625 10.796875 C0.19190417 7.47697334 0.19190417 7.47697334 -1.171875 6.234375 C-3.4589602 6.05597066 -5.75327492 5.96643369 -8.046875 5.921875 C-9.30242188 5.88449219 -10.55796875 5.84710938 -11.8515625 5.80859375 C-15.21694419 5.89900277 -15.21694419 5.89900277 -17.07421875 8.11328125 C-18.13798291 10.16888246 -18.76592165 11.96103624 -19.171875 14.234375 C-20.491875 14.234375 -21.811875 14.234375 -23.171875 14.234375 C-23.75195942 10.91960686 -23.62466124 8.90259986 -21.71875 6.08984375 C-15.8578947 -0.74371653 -8.92771479 -3.14718003 0 0 Z " fill="#00C9F5" transform="translate(58.171875,59.765625)"/>
<path d="M0 0 C1.13630859 0.03158203 2.27261719 0.06316406 3.44335938 0.09570312 C4.53583984 0.14017578 5.62832031 0.18464844 6.75390625 0.23046875 C7.74849854 0.26938232 8.74309082 0.3082959 9.76782227 0.34838867 C12.75692144 0.86802996 14.19458571 1.8166159 16.4375 3.8125 C9.41748362 8.49251092 -0.69512561 9.76008575 -8.95703125 8.42578125 C-10.875 7.875 -10.875 7.875 -13.5625 6.8125 C-13.665625 6.173125 -13.76875 5.53375 -13.875 4.875 C-14.101875 4.194375 -14.32875 3.51375 -14.5625 2.8125 C-15.5525 2.4825 -16.5425 2.1525 -17.5625 1.8125 C-11.70757353 -0.91391131 -6.32473538 -0.28437911 0 0 Z " fill="#7A6093" transform="translate(81.5625,22.1875)"/>
<path d="M0 0 C4.38906409 3.03054426 6.33342539 5.33032909 7.375 10.625 C7.49875 12.2028125 7.49875 12.2028125 7.625 13.8125 C6.305 13.8125 4.985 13.8125 3.625 13.8125 C3.25375 12.905 2.8825 11.9975 2.5 11.0625 C0.30412612 7.25631861 -1.47826711 5.79906971 -5.375 3.8125 C-8.8446436 3.31683663 -10.81288871 3.59026995 -14.0625 4.875 C-17.21824207 7.51900011 -17.99373802 9.95950605 -19.375 13.8125 C-20.695 13.8125 -22.015 13.8125 -23.375 13.8125 C-23.20607858 8.91377877 -23.00978049 5.94559352 -19.5 2.375 C-14.16692058 -2.54268881 -6.54713624 -2.30362201 0 0 Z " fill="#00F1F9" transform="translate(118.375,60.1875)"/>
<path d="M0 0 C0.33 0 0.66 0 1 0 C1.66 3.3 2.32 6.6 3 10 C4.65 10.33 6.3 10.66 8 11 C8.02888146 14.31248187 8.04675799 17.62493167 8.0625 20.9375 C8.07087891 21.88302734 8.07925781 22.82855469 8.08789062 23.80273438 C8.09111328 24.70185547 8.09433594 25.60097656 8.09765625 26.52734375 C8.10289307 27.35999756 8.10812988 28.19265137 8.11352539 29.05053711 C8 31 8 31 7 32 C4 32.125 4 32.125 1 32 C0 31 0 31 -0.11352539 28.04077148 C-0.10828857 26.74727783 -0.10305176 25.45378418 -0.09765625 24.12109375 C-0.0962413 23.4344313 -0.09482635 22.74776886 -0.09336853 22.04029846 C-0.08775479 19.83932199 -0.07520007 17.63844591 -0.0625 15.4375 C-0.05748676 13.94856917 -0.05292355 12.45963676 -0.04882812 10.97070312 C-0.03778093 7.31376925 -0.02050713 3.65689442 0 0 Z " fill="#640505" transform="translate(10,77)"/>
<path d="M0 0 C0.33 1.32 0.66 2.64 1 4 C6.94 4 12.88 4 19 4 C20 7 20 7 18.8125 9.5625 C16.1940924 13.08380677 14.41029108 13.78539049 10.125 14.4375 C5.7317629 13.82244681 4.15434031 12.08098355 1 9 C-0.4783226 6.04335481 -0.06032783 3.25770263 0 0 Z " fill="#E9EEF1" transform="translate(40,71)"/>
<path d="M0 0 C3.1864859 6.3729718 0.56684059 15.42486539 -1 22 C-2.65 22 -4.3 22 -6 22 C-7.10087193 14.98194143 -7.09733092 8.09434233 -7 1 C-3.375 -1.125 -3.375 -1.125 0 0 Z " fill="#E50D0B" transform="translate(149,67)"/>
<path d="M0 0 C5.61 0 11.22 0 17 0 C18 4 18 4 16.625 6.6875 C13.45696447 9.47838845 11.40388395 10.00444753 7.26171875 10.28515625 C3.38139376 9.79592702 1.64227074 7.7777718 -1 5 C-0.67 3.35 -0.34 1.7 0 0 Z " fill="#E8EEF1" transform="translate(102,75)"/>
<path d="M0 0 C3.63 0 7.26 0 11 0 C11 3.96 11 7.92 11 12 C7.37 12 3.74 12 0 12 C0 8.04 0 4.08 0 0 Z " fill="#94968F" transform="translate(67,110)"/>
<path d="M0 0 C3.7854464 1.26181547 4.32215868 2.99299935 6.05859375 6.43359375 C6.58646484 7.51833984 6.58646484 7.51833984 7.125 8.625 C7.48464844 9.32496094 7.84429687 10.02492188 8.21484375 10.74609375 C8.55902344 11.44089844 8.90320313 12.13570312 9.2578125 12.8515625 C9.5686377 13.47885254 9.87946289 14.10614258 10.19970703 14.75244141 C11 17 11 17 12 24 C5.07 24 -1.86 24 -9 24 C-10.07728569 19.69085724 -9.9893141 19.22054133 -8.1640625 15.48828125 C-7.75929688 14.64845703 -7.35453125 13.80863281 -6.9375 12.94335938 C-6.504375 12.07517578 -6.07125 11.20699219 -5.625 10.3125 C-5.19960937 9.43271484 -4.77421875 8.55292969 -4.3359375 7.64648438 C-1.1896734 1.1896734 -1.1896734 1.1896734 0 0 Z M1 1 C0.03912864 2.89454824 -0.91858969 4.79069581 -1.875 6.6875 C-2.40867187 7.74324219 -2.94234375 8.79898438 -3.4921875 9.88671875 C-6.3033517 15.67410884 -6.3033517 15.67410884 -7 22 C-1.72 22 3.56 22 9 22 C8.08186715 15.41725956 8.08186715 15.41725956 5.5625 9.8125 C5.13066406 8.99394531 4.69882813 8.17539063 4.25390625 7.33203125 C3.84011719 6.56246094 3.42632812 5.79289062 3 5 C2.32881742 3.6689342 1.66051526 2.33639134 1 1 Z " fill="#752222" transform="translate(79,76)"/>
<path d="M0 0 C1.32 0.33 2.64 0.66 4 1 C4 2.98 4 4.96 4 7 C4.66 7 5.32 7 6 7 C7.01866229 8.65532623 8.01810813 10.32260138 9 12 C12.47370107 13.73685053 16.20190812 13.46115112 20 13 C24.3855192 10.76586758 27.25199052 8.07112515 30 4 C30.77833534 1.81785432 30.77833534 1.81785432 31 0 C31.99 0 32.98 0 34 0 C33.39565443 6.3456285 31.07399385 10.12352938 26.375 14.375 C21.14700578 16.8921824 16.27367445 16.99779803 10.71875 15.3046875 C5.97758278 13.19946773 3.36385852 10.72771704 1 6 C0.25 2.625 0.25 2.625 0 0 Z " fill="#266781" transform="translate(33,75)"/>
<path d="M0 0 C4.99396163 2.22164833 8.56917987 5.29280814 10.8046875 10.3515625 C11.1171875 14.2890625 11.1171875 14.2890625 10.8046875 17.3515625 C9.1546875 17.3515625 7.5046875 17.3515625 5.8046875 17.3515625 C7.1246875 17.0215625 8.4446875 16.6915625 9.8046875 16.3515625 C8.23401532 11.51019649 6.83864811 7.41074166 3.2421875 3.7265625 C-2.47630334 1.43916616 -8.38257985 1.21450036 -14.1328125 3.5390625 C-18.57914218 7.44644313 -20.63885767 10.36967306 -21.1953125 16.3515625 C-20.2053125 16.6815625 -19.2153125 17.0115625 -18.1953125 17.3515625 C-19.8453125 17.3515625 -21.4953125 17.3515625 -23.1953125 17.3515625 C-23.70322771 12.01845281 -22.54157163 9.49035669 -19.1953125 5.3515625 C-13.26386569 -0.27725947 -8.08932299 -2.38937298 0 0 Z " fill="#2188B5" transform="translate(56.1953125,57.6484375)"/>
<path d="M0 0 C0.86367187 -0.01675781 1.72734375 -0.03351562 2.6171875 -0.05078125 C5.61062909 0.38284814 6.9886427 1.19104752 9.125 3.3125 C9.125 4.3025 9.125 5.2925 9.125 6.3125 C3.185 6.3125 -2.755 6.3125 -8.875 6.3125 C-6.33267097 1.22784193 -5.52975459 0.02461315 0 0 Z " fill="#FFF690" transform="translate(79.875,4.6875)"/>
<path d="M0 0 C3.63 0 7.26 0 11 0 C11 2.64 11 5.28 11 8 C7.37 8 3.74 8 0 8 C0 5.36 0 2.72 0 0 Z " fill="#BFC6BD" transform="translate(82,114)"/>
<path d="M0 0 C0.33 0 0.66 0 1 0 C1.33 9.9 1.66 19.8 2 30 C3.98 30 5.96 30 8 30 C8 30.33 8 30.66 8 31 C6.02 31 4.04 31 2 31 C2.01160156 31.67804688 2.02320313 32.35609375 2.03515625 33.0546875 C2.09708351 39.44204207 1.77018868 45.65969676 1 52 C0.67 52 0.34 52 0 52 C0.00523682 51.42032471 0.01047363 50.84064941 0.01586914 50.2434082 C0.03674334 47.5997833 0.04969327 44.95617579 0.0625 42.3125 C0.07087891 41.40048828 0.07925781 40.48847656 0.08789062 39.54882812 C0.09111328 38.66259766 0.09433594 37.77636719 0.09765625 36.86328125 C0.10289307 36.05157471 0.10812988 35.23986816 0.11352539 34.40356445 C0.05950555 31.97400902 0.05950555 31.97400902 -0.49780273 29.53222656 C-1.03285837 26.83431841 -1.12941286 24.3697029 -1.1328125 21.62109375 C-1.13410156 20.61755859 -1.13539063 19.61402344 -1.13671875 18.58007812 C-1.13285156 17.54302734 -1.12898437 16.50597656 -1.125 15.4375 C-1.12886719 14.39658203 -1.13273438 13.35566406 -1.13671875 12.28320312 C-1.13542969 11.28095703 -1.13414062 10.27871094 -1.1328125 9.24609375 C-1.13168457 8.33529053 -1.13055664 7.4244873 -1.12939453 6.48608398 C-1.00937295 4.18008442 -0.64947474 2.2086656 0 0 Z " fill="#526D73" transform="translate(141,78)"/>
<path d="M0 0 C0.66 0 1.32 0 2 0 C2.5775 0.7425 3.155 1.485 3.75 2.25 C6.66967502 5.81849169 9.39569931 8.5651446 14.10546875 9.3515625 C22.71380542 9.67752361 28.78875324 6.74540325 35 1 C33.09393308 5.8518067 29.52490062 8.02960869 25.25 10.75 C20.01152348 12.76479866 15.64843808 12.98003876 10.33984375 11.015625 C5.94815503 8.92003274 2.12258861 6.83226784 -1 3 C-0.67 2.01 -0.34 1.02 0 0 Z " fill="#393144" transform="translate(63,26)"/>
<path d="M0 0 C0 3.96 0 7.92 0 12 C-5 12 -5 12 -6.8125 10.875 C-8.57002414 8.09996189 -8.46822746 6.21070255 -8 3 C-5.22094435 0.02244037 -4.2016934 0 0 0 Z " fill="#D9E2D9" transform="translate(63,110)"/>
<path d="M0 0 C0.66 0.66 1.32 1.32 2 2 C1.40832031 2.01417969 0.81664063 2.02835937 0.20703125 2.04296875 C-4.0571005 2.30034701 -6.48172976 2.64038392 -10.0625 5.125 C-12.56890642 8.84418373 -12.76080225 10.58734697 -12 15 C-10.53497967 17.59157045 -8.89617158 19.67718981 -7 22 C-10.36720387 20.60667426 -11.9859524 19.0210714 -14 16 C-13.82374165 18.37948772 -13.30280227 19.70225849 -11.59765625 21.37890625 C-10.09350908 22.62115486 -8.54870149 23.81376056 -7 25 C-7.66 25.33 -8.32 25.66 -9 26 C-16.80069525 19.93047509 -16.80069525 19.93047509 -18 15 C-18 14.01 -18 13.02 -18 12 C-16.68 12 -15.36 12 -14 12 C-14.0825 11.278125 -14.165 10.55625 -14.25 9.8125 C-13.91843965 6.08244603 -12.58143954 4.65314619 -10 2 C-6.74844594 -0.27608784 -3.90950759 -0.33995718 0 0 Z " fill="#2C8293" transform="translate(113,63)"/>
<path d="M0 0 C1.20628008 2.33214148 2.1654738 4.49642139 3 7 C9.50418238 9.95644654 16.06767071 8.77141709 23 8 C23 9.32 23 10.64 23 12 C16.07 12 9.14 12 2 12 C-0.35333796 7.29332409 -0.17102038 5.1306114 0 0 Z " fill="#F77802" transform="translate(68,11)"/>
<path d="M0 0 C9.24 0 18.48 0 28 0 C20.38017938 3.80991031 11.25521665 2.10069555 3 1 C2.67 1.99 2.34 2.98 2 4 C-4.47024863 7.50471801 -11.78692016 9.09411995 -19 7 C-19 6.67 -19 6.34 -19 6 C-18.28714844 5.96261719 -17.57429688 5.92523438 -16.83984375 5.88671875 C-10.92680196 5.48084374 -6.23333532 4.84420398 -1 2 C-0.67 1.34 -0.34 0.68 0 0 Z " fill="#C7E3DF" transform="translate(92,34)"/>
<path d="M0 0 C-4.83858419 4.83858419 -15.76506938 3.17437591 -22.21484375 3.328125 C-25 3 -25 3 -26.87890625 1.484375 C-27.24886719 0.99453125 -27.61882812 0.5046875 -28 0 C-27 -1 -27 -1 -23.140625 -1.0625 C-20.68988797 -1.03839439 -18.23960473 -0.999835 -15.7890625 -0.9609375 C-1.30134233 -0.81936369 -1.30134233 -0.81936369 0 0 Z " fill="#8F73AF" transform="translate(96,25)"/>
<path d="M0 0 C0.33 1.32 0.66 2.64 1 4 C-2.67940259 6.45293506 -4.56307429 6.2379918 -8.9375 6.1875 C-10.16339844 6.18105469 -11.38929687 6.17460937 -12.65234375 6.16796875 C-15.31068356 6.03458647 -17.48045374 5.78933154 -20 5 C-20 4.01 -20 3.02 -20 2 C-13.4 2 -6.8 2 0 2 C0 1.34 0 0.68 0 0 Z " fill="#FEBD02" transform="translate(90,11)"/>
<path d="M0 0 C3.35810395 1.38956025 5.18586552 2.82526467 7 6 C7.1875 8.75 7.1875 8.75 7 11 C7.66 11 8.32 11 9 11 C8.49572053 15.41244536 6.98672249 17.74974317 4 21 C0.79619983 23.13586678 -0.01939967 23.23132175 -3.6875 23.125 C-4.89986328 23.09792969 -4.89986328 23.09792969 -6.13671875 23.0703125 C-6.75160156 23.04710938 -7.36648437 23.02390625 -8 23 C-8 22.67 -8 22.34 -8 22 C-7.113125 21.7525 -6.22625 21.505 -5.3125 21.25 C-1.3201848 19.74346596 2.04062332 17.91875337 4 14 C4.56652431 9.27277258 4.64848749 5.99299648 2 1.9375 C1.34 1.298125 0.68 0.65875 0 0 Z " fill="#328598" transform="translate(115,65)"/>
<path d="M0 0 C2.875 -0.125 2.875 -0.125 6 0 C6.66 0.66 7.32 1.32 8 2 C7.8125 5 7.8125 5 7 8 C4 10 4 10 0 10 C0 6.7 0 3.4 0 0 Z " fill="#C3CAC1" transform="translate(98,112)"/>
<path d="M0 0 C0.309375 0.639375 0.61875 1.27875 0.9375 1.9375 C1.8345163 3.93610821 1.8345163 3.93610821 3 5 C3.23192865 6.51469448 3.41215238 8.03754562 3.5625 9.5625 C3.64628906 10.38878906 3.73007813 11.21507813 3.81640625 12.06640625 C3.87699219 12.70449219 3.93757813 13.34257813 4 14 C3.401875 13.79375 2.80375 13.5875 2.1875 13.375 C-0.28450846 12.69328085 -0.28450846 12.69328085 -3 15 C-4.40913826 9.36344696 -3.73956036 6.55846884 -0.91015625 1.50390625 C-0.60980469 1.00761719 -0.30945313 0.51132813 0 0 Z " fill="#E56E6C" transform="translate(80,77)"/>
<path d="M0 0 C0.96955124 0.00707474 1.93910248 0.01414948 2.93803406 0.0214386 C6.02589012 0.04936251 9.1119135 0.11209822 12.19921875 0.17578125 C14.29619772 0.20086667 16.39320519 0.22367941 18.49023438 0.24414062 C23.62309884 0.29918287 28.75459839 0.38544266 33.88671875 0.48828125 C33.88671875 0.81828125 33.88671875 1.14828125 33.88671875 1.48828125 C32.11627197 1.51015503 32.11627197 1.51015503 30.31005859 1.5324707 C25.915225 1.59060822 21.52089549 1.66784006 17.12646484 1.75073242 C15.22745976 1.78390918 13.32835779 1.81196356 11.42919922 1.8347168 C8.6932664 1.86839643 5.95821564 1.92071845 3.22265625 1.9765625 C2.37867279 1.98295242 1.53468933 1.98934235 0.66513062 1.9959259 C-4.28209757 2.11827604 -7.87163815 2.6623124 -12.11328125 5.48828125 C-13.55296852 8.55189902 -13.55296852 8.55189902 -14.11328125 11.48828125 C-14.77328125 11.48828125 -15.43328125 11.48828125 -16.11328125 11.48828125 C-15.85987647 7.85614601 -15.33347353 5.79544093 -13.19458008 2.81176758 C-8.81265579 -0.49246929 -5.34417046 -0.1472433 0 0 Z " fill="#5B9AA5" transform="translate(67.11328125,106.51171875)"/>
<path d="M0 0 C1.37478516 0.01740234 1.37478516 0.01740234 2.77734375 0.03515625 C3.69644531 0.04417969 4.61554688 0.05320312 5.5625 0.0625 C6.27277344 0.07410156 6.98304687 0.08570312 7.71484375 0.09765625 C7.71484375 2.07765625 7.71484375 4.05765625 7.71484375 6.09765625 C4.08484375 6.09765625 0.45484375 6.09765625 -3.28515625 6.09765625 C-3.28515625 0.14039129 -3.28515625 0.14039129 0 0 Z " fill="#CFD7CE" transform="translate(70.28515625,115.90234375)"/>
<path d="M0 0 C0.66 0 1.32 0 2 0 C2.66 3.96 3.32 7.92 4 12 C5.32 11.67 6.64 11.34 8 11 C8 13.31 8 15.62 8 18 C7.34 16.68 6.68 15.36 6 14 C4.68 14 3.36 14 2 14 C1.93941406 14.75925781 1.87882813 15.51851562 1.81640625 16.30078125 C1.73261719 17.29464844 1.64882812 18.28851563 1.5625 19.3125 C1.48128906 20.29863281 1.40007812 21.28476563 1.31640625 22.30078125 C1 25 1 25 0 28 C-0.66 27.67 -1.32 27.34 -2 27 C-1.505 25.515 -1.505 25.515 -1 24 C-0.85110253 22.15533558 -0.7520899 20.30642725 -0.68359375 18.45703125 C-0.64169922 17.38388672 -0.59980469 16.31074219 -0.55664062 15.20507812 C-0.51732422 14.08552734 -0.47800781 12.96597656 -0.4375 11.8125 C-0.39431641 10.68134766 -0.35113281 9.55019531 -0.30664062 8.38476562 C-0.20050901 5.58996646 -0.09845615 2.79507838 0 0 Z " fill="#1F5A65" transform="translate(134,99)"/>
<path d="M0 0 C0.87785156 -0.00257812 1.75570312 -0.00515625 2.66015625 -0.0078125 C4.9375 0.125 4.9375 0.125 6.9375 1.125 C6.9375 1.785 6.9375 2.445 6.9375 3.125 C6.20144531 3.07859375 5.46539062 3.0321875 4.70703125 2.984375 C-1.44197669 2.70864302 -1.44197669 2.70864302 -7.125 4.75 C-9.32477877 7.446503 -10.22267873 9.76571493 -11.0625 13.125 C-12.0525 12.795 -13.0425 12.465 -14.0625 12.125 C-12.94994102 7.30391107 -12.00880932 4.2342134 -8.0625 1.125 C-5.09900719 0.13716906 -3.0912337 -0.00910525 0 0 Z " fill="#00F4FA" transform="translate(50.0625,60.875)"/>
<path d="M0 0 C2 2 2 2 2.25 5.4375 C2 9 2 9 0 12 C-3.07921132 12.25660094 -5.21136993 12.39431504 -8 11 C-7.67 9.35 -7.34 7.7 -7 6 C-6.01 6 -5.02 6 -4 6 C-2.66018514 5.6937566 -1.32488113 5.36548445 0 5 C0 3.35 0 1.7 0 0 Z " fill="#CE605F" transform="translate(83,84)"/>
<path d="M0 0 C3.96 0 7.92 0 12 0 C12 3.96 12 7.92 12 12 C11.67 12 11.34 12 11 12 C11 9.36 11 6.72 11 4 C7.37 4 3.74 4 0 4 C0 2.68 0 1.36 0 0 Z " fill="#635D59" transform="translate(82,110)"/>
<path d="M0 0 C2.475 0.495 2.475 0.495 5 1 C5 4.3 5 7.6 5 11 C3.68 11.33 2.36 11.66 1 12 C0 11 0 11 -0.09765625 8.49609375 C-0.08605469 7.48675781 -0.07445312 6.47742188 -0.0625 5.4375 C-0.05347656 4.42558594 -0.04445312 3.41367188 -0.03515625 2.37109375 C-0.02355469 1.58863281 -0.01195312 0.80617188 0 0 Z " fill="#F28886" transform="translate(143,74)"/>
<path d="M0 0 C0.33 0 0.66 0 1 0 C1 12.54 1 25.08 1 38 C0.67 38 0.34 38 0 38 C0 32.06 0 26.12 0 20 C-1.65 20 -3.3 20 -5 20 C-5.33 18.68 -5.66 17.36 -6 16 C-3.525 16.99 -3.525 16.99 -1 18 C-0.505 9.09 -0.505 9.09 0 0 Z " fill="#6F4A4D" transform="translate(18,68)"/>
<path d="M0 0 C-2.22358611 4.44717222 -7.5605414 7.32621087 -11.9375 9.375 C-16.00524526 10.20515209 -19.87634465 10.67293047 -24 10 C-26.5625 8 -26.5625 8 -28 6 C-27.38125 6.165 -26.7625 6.33 -26.125 6.5 C-20.51316747 7.3978932 -13.39545264 8.02329474 -8 6 C-6.83333333 4.08333333 -6.83333333 4.08333333 -6 2 C-3 0 -3 0 0 0 Z " fill="#533E63" transform="translate(99,26)"/>
<path d="M0 0 C0 3.96 0 7.92 0 12 C-2.475 11.01 -2.475 11.01 -5 10 C-5 7.36 -5 4.72 -5 2 C-1.125 0 -1.125 0 0 0 Z " fill="#F28C8A" transform="translate(17,74)"/>
<path d="M0 0 C1.66611905 -0.042721 3.33382885 -0.04063832 5 0 C6.7462388 1.7462388 6.13221151 3.99878324 6.13671875 6.32226562 C6.13285156 7.02029297 6.12898437 7.71832031 6.125 8.4375 C6.12886719 9.13166016 6.13273438 9.82582031 6.13671875 10.54101562 C6.12663994 15.74672012 6.12663994 15.74672012 5 18 C3.35 18 1.7 18 0 18 C0.33 16.68 0.66 15.36 1 14 C2.32 14 3.64 14 5 14 C4.67 10.7 4.34 7.4 4 4 C2.68 3.67 1.36 3.34 0 3 C0 2.01 0 1.02 0 0 Z " fill="#FB3C36" transform="translate(143,71)"/>
<path d="M0 0 C1.52491998 3.04983996 1.23562548 5.6423369 1 9 C-0.375 10.9375 -0.375 10.9375 -2 12 C-2.66 12 -3.32 12 -4 12 C-4 11.34 -4 10.68 -4 10 C-3.484375 9.566875 -2.96875 9.13375 -2.4375 8.6875 C-1.7259375 7.8521875 -1.7259375 7.8521875 -1 7 C-1.23043864 4.34533951 -1.23043864 4.34533951 -2 2 C-4.97 1.505 -4.97 1.505 -8 1 C-8 4.3 -8 7.6 -8 11 C-8.33 11 -8.66 11 -9 11 C-9 7.04 -9 3.08 -9 -1 C-4.72190919 -2.0695227 -3.75775182 -1.92965634 0 0 Z " fill="#2E2D2D" transform="translate(106,111)"/>
<path d="M0 0 C1.02158203 0.0515625 2.04316406 0.103125 3.09570312 0.15625 C4.15080078 0.22070312 5.20589844 0.28515625 6.29296875 0.3515625 C7.90461914 0.43664062 7.90461914 0.43664062 9.54882812 0.5234375 C12.19342341 0.66448258 14.83700769 0.81585226 17.48046875 0.9765625 C17.48046875 1.3065625 17.48046875 1.6365625 17.48046875 1.9765625 C12.70953919 3.21059112 8.05577429 3.08921362 3.16796875 3.0390625 C2.33201172 3.03455078 1.49605469 3.03003906 0.63476562 3.02539062 C-1.41669774 3.01366798 -3.46812398 2.99573453 -5.51953125 2.9765625 C-5.51953125 3.6365625 -5.51953125 4.2965625 -5.51953125 4.9765625 C-6.17953125 4.9765625 -6.83953125 4.9765625 -7.51953125 4.9765625 C-7.51953125 4.3165625 -7.51953125 3.6565625 -7.51953125 2.9765625 C-8.50953125 2.6465625 -9.49953125 2.3165625 -10.51953125 1.9765625 C-6.79566081 0.24604063 -4.0878766 -0.22837299 0 0 Z " fill="#83607C" transform="translate(74.51953125,22.0234375)"/>
<path d="M0 0 C0.33 0 0.66 0 1 0 C1 5.61 1 11.22 1 17 C0.34 16.67 -0.32 16.34 -1 16 C-3.62387135 17.39092892 -3.62387135 17.39092892 -6 19 C-6 16.03 -6 13.06 -6 10 C-5.67 11.32 -5.34 12.64 -5 14 C-3.68 13.67 -2.36 13.34 -1 13 C-1.020625 11.783125 -1.04125 10.56625 -1.0625 9.3125 C-1.06824116 6.08022678 -0.78766315 3.15065259 0 0 Z " fill="#1A525C" transform="translate(25,97)"/>
<path d="M0 0 C0.33 0 0.66 0 1 0 C1 2.64 1 5.28 1 8 C2.65 8 4.3 8 6 8 C5.6875 9.9375 5.6875 9.9375 5 12 C4.01 12.33 3.02 12.66 2 13 C1.67 16.96 1.34 20.92 1 25 C0.67 25 0.34 25 0 25 C0 16.75 0 8.5 0 0 Z " fill="#671313" transform="translate(142,81)"/>
<path d="M0 0 C0.78375 0.495 1.5675 0.99 2.375 1.5 C1.385 1.995 1.385 1.995 0.375 2.5 C-0.615 2.17 -1.605 1.84 -2.625 1.5 C-4.4764445 1.38170563 -6.33232138 1.32485139 -8.1875 1.3125 C-9.15816406 1.29832031 -10.12882812 1.28414062 -11.12890625 1.26953125 C-13.79898916 1.24792254 -13.79898916 1.24792254 -15.625 3.5 C-17.75 3.125 -17.75 3.125 -19.625 2.5 C-14.53611087 -3.07354524 -6.61169 -2.73587172 0 0 Z " fill="#00CAF5" transform="translate(118.625,60.5)"/>
<path d="M0 0 C-0.33 0.99 -0.66 1.98 -1 3 C-1.33 2.34 -1.66 1.68 -2 1 C-2.73637695 1.03029297 -3.47275391 1.06058594 -4.23144531 1.09179688 C-7.57092974 1.22870415 -10.91046364 1.3643657 -14.25 1.5 C-15.40886719 1.54769531 -16.56773438 1.59539063 -17.76171875 1.64453125 C-18.87675781 1.68964844 -19.99179687 1.73476563 -21.140625 1.78125 C-22.16704102 1.82314453 -23.19345703 1.86503906 -24.25097656 1.90820312 C-26.4996058 1.98329057 -28.75011743 2 -31 2 C-27.64471522 -0.23685652 -26.28741408 -0.30205305 -22.34375 -0.44921875 C-21.23902344 -0.49240234 -20.13429688 -0.53558594 -18.99609375 -0.58007812 C-17.26552734 -0.63325195 -17.26552734 -0.63325195 -15.5 -0.6875 C-14.34628906 -0.73455078 -13.19257812 -0.78160156 -12.00390625 -0.83007812 C-3.4080003 -1.1360001 -3.4080003 -1.1360001 0 0 Z " fill="#CAE2DF" transform="translate(68,34)"/>
<path d="M0 0 C0.66 0.33 1.32 0.66 2 1 C1.60167969 1.76183594 1.20335938 2.52367188 0.79296875 3.30859375 C-2.35851676 9.45053996 -5.01618448 15.38728161 -7 22 C-7.66 22 -8.32 22 -9 22 C-8.4560915 16.52638111 -6.44606199 12.41682999 -3.9375 7.625 C-3.37192383 6.52091797 -3.37192383 6.52091797 -2.79492188 5.39453125 C-1.87055636 3.59260354 -0.93627386 1.79576901 0 0 Z " fill="#D3201F" transform="translate(79,76)"/>
<path d="M0 0 C3.53508103 0.29459009 4.76203444 0.74881413 7.25 3.375 C10.11376089 7.67064133 10.09551883 10.93750225 10 16 C9.67 16 9.34 16 9 16 C8.79375 14.948125 8.5875 13.89625 8.375 12.8125 C7.14310195 8.35592764 4.68218037 6.64156418 1 4 C1.33 3.34 1.66 2.68 2 2 C1.34 1.34 0.68 0.68 0 0 Z " fill="#FCA030" transform="translate(84,2)"/>
<path d="M0 0 C0.66 0.33 1.32 0.66 2 1 C1.01 2.0209375 1.01 2.0209375 0 3.0625 C-2.54574268 6.80155956 -2.69082346 8.54802659 -2 13 C-0.53859084 15.59412768 1.10359638 17.67690556 3 20 C-0.7890625 19.2109375 -0.7890625 19.2109375 -2.6875 17.3125 C-4.35106421 14.38145829 -4.86739377 12.38145888 -5 9 C-3.72720597 5.36344564 -2.73264029 2.73264029 0 0 Z " fill="#277D8B" transform="translate(43,65)"/>
<path d="M0 0 C0.33 0.99 0.66 1.98 1 3 C0.525625 3.391875 0.05125 3.78375 -0.4375 4.1875 C-2.38393685 6.44536675 -2.57249021 8.07868312 -3 11 C-3.50604744 13.21395755 -3.98256393 14.96512785 -5 17 C-7.23117064 12.66890406 -7.33821718 9.68376012 -6 5 C-4.14669313 2.95160819 -2.28506612 1.60440813 0 0 Z " fill="#FD9F27" transform="translate(73,4)"/>
<path d="M0 0 C0 3.96 0 7.92 0 12 C-1.65 12 -3.3 12 -5 12 C-3.68 11.67 -2.36 11.34 -1 11 C-1 8.69 -1 6.38 -1 4 C-3.31 4 -5.62 4 -8 4 C-4.5 0 -4.5 0 0 0 Z " fill="#91928C" transform="translate(63,110)"/>
<path d="M0 0 C4.22783096 4.54100362 7.08205665 10.1235617 9 16 C8.5534668 18.16381836 8.5534668 18.16381836 8 20 C6.65673469 17.42141033 5.32525335 14.83782579 4 12.25 C3.42765625 11.15558594 3.42765625 11.15558594 2.84375 10.0390625 C2.4828125 9.33007812 2.121875 8.62109375 1.75 7.890625 C1.41484375 7.24125977 1.0796875 6.59189453 0.734375 5.92285156 C0 4 0 4 0 0 Z " fill="#DB110F" transform="translate(81,77)"/>
<path d="M0 0 C3.12270126 2.51830747 3.94523098 3.7261549 4.75 7.75 C4.8325 8.8225 4.915 9.895 5 11 C3.68 11 2.36 11 1 11 C0.83197949 9.54182203 0.66562857 8.0834516 0.5 6.625 C0.4071875 5.81289062 0.314375 5.00078125 0.21875 4.1640625 C0 2 0 2 0 0 Z " fill="#00D7F7" transform="translate(121,63)"/>
<path d="M0 0 C2.375 1 2.375 1 5 3 C6.04768041 5.66921593 6.48684546 8.15432483 7 11 C5.35 11 3.7 11 2 11 C2.04125 9.9275 2.0825 8.855 2.125 7.75 C2.0114175 4.34252515 1.78726636 2.79260369 0 0 Z " fill="#00DEF8" transform="translate(59,63)"/>
<path d="M0 0 C2 2 2 2 3.3125 5.0625 C4.69776702 8.23366015 4.69776702 8.23366015 7.6875 8.875 C8.8321875 8.936875 8.8321875 8.936875 10 9 C10 9.99 10 10.98 10 12 C6.62537285 11.45276317 4.91765 10.9451 2 9 C2 8.34 2 7.68 2 7 C1.34 7 0.68 7 0 7 C-0.38133299 5.0085944 -0.71325582 3.00720923 -1 1 C-0.67 0.67 -0.34 0.34 0 0 Z " fill="#2F839C" transform="translate(37,75)"/>
<path d="M0 0 C2.10241603 -0.13496251 4.2072961 -0.23197307 6.3125 -0.3125 C7.48425781 -0.37050781 8.65601563 -0.42851563 9.86328125 -0.48828125 C13 0 13 0 14.91796875 2.51953125 C15.45357422 3.74736328 15.45357422 3.74736328 16 5 C15.34 5.66 14.68 6.32 14 7 C13.63261719 6.35546875 13.26523437 5.7109375 12.88671875 5.046875 C10.30357082 2.24445365 8.55737589 2.41106993 4.8125 2.25 C3.72582031 2.19328125 2.63914063 2.1365625 1.51953125 2.078125 C0.68808594 2.05234375 -0.14335938 2.0265625 -1 2 C-0.67 1.34 -0.34 0.68 0 0 Z " fill="#1ECCD2" transform="translate(46,63)"/>
<path d="M0 0 C3.63 0 7.26 0 11 0 C11 0.99 11 1.98 11 3 C7.37 3 3.74 3 0 3 C0 2.01 0 1.02 0 0 Z " fill="#625955" transform="translate(67,110)"/>
<path d="M0 0 C0.33 0 0.66 0 1 0 C1.33 1.65 1.66 3.3 2 5 C3.32 5.33 4.64 5.66 6 6 C6 7.65 6 9.3 6 11 C3.5625 10.625 3.5625 10.625 1 10 C-0.60725635 6.78548731 -0.05748185 3.56387464 0 0 Z " fill="#731B1A" transform="translate(11,82)"/>
<path d="M0 0 C1.32 0.33 2.64 0.66 4 1 C4 2.98 4 4.96 4 7 C4.66 7 5.32 7 6 7 C6.33 8.32 6.66 9.64 7 11 C6.01 11.495 6.01 11.495 5 12 C2.03162219 7.97832683 0.47610659 4.99911924 0 0 Z " fill="#2A6C84" transform="translate(33,75)"/>
<path d="M0 0 C2.97 0.495 2.97 0.495 6 1 C5.58525633 6.28798182 4.64775386 9.11690718 1 13 C0.34 12.67 -0.32 12.34 -1 12 C-0.525625 11.46375 -0.05125 10.9275 0.4375 10.375 C2.28186076 7.57157164 2.62456847 5.30379742 3 2 C2.34 2 1.68 2 1 2 C0.67 2.66 0.34 3.32 0 4 C0 2.68 0 1.36 0 0 Z " fill="#23677F" transform="translate(121,74)"/>
<path d="M0 0 C0.33 0 0.66 0 1 0 C1 1.98 1 3.96 1 6 C2.32 5.67 3.64 5.34 5 5 C4.40844669 6.31823302 3.80128537 7.62947051 3.1875 8.9375 C2.85105469 9.66839844 2.51460937 10.39929688 2.16796875 11.15234375 C1 13 1 13 -2 14 C-1.34 9.38 -0.68 4.76 0 0 Z " fill="#9FC6C9" transform="translate(127,70)"/>
<path d="M0 0 C1.85776765 3.13498292 2.20140476 5.37471432 2 9 C0.68 9 -0.64 9 -2 9 C-2.25 3.375 -2.25 3.375 0 0 Z " fill="#F58685" transform="translate(80,77)"/>
<path d="M0 0 C1.32 0.66 2.64 1.32 4 2 C3.05125 2.37125 2.1025 2.7425 1.125 3.125 C-2.25553808 4.73995905 -2.25553808 4.73995905 -3.375 8.1875 C-3.58125 9.115625 -3.7875 10.04375 -4 11 C-4.66 11 -5.32 11 -6 11 C-5.62671065 5.64951939 -4.0042343 3.49087093 0 0 Z " fill="#45828D" transform="translate(57,107)"/>
<path d="M0 0 C2.875 -0.125 2.875 -0.125 6 0 C6.66 0.66 7.32 1.32 8 2 C7.625 4.125 7.625 4.125 7 6 C7 5.01 7 4.02 7 3 C4.69 3 2.38 3 0 3 C0 2.01 0 1.02 0 0 Z " fill="#84827C" transform="translate(98,112)"/>
<path d="M0 0 C2.125 0.375 2.125 0.375 4 1 C4 1.66 4 2.32 4 3 C4.66 3 5.32 3 6 3 C8.29013653 6.4352048 8.17842973 7.985331 8 12 C7.67 12 7.34 12 7 12 C6.34 9.36 5.68 6.72 5 4 C2.69 3.34 0.38 2.68 -2 2 C-1.34 1.34 -0.68 0.68 0 0 Z " fill="#488690" transform="translate(101,107)"/>
<path d="M0 0 C1.32 0 2.64 0 4 0 C4 3.96 4 7.92 4 12 C3.67 12 3.34 12 3 12 C2.67 9.03 2.34 6.06 2 3 C0.68 3.33 -0.64 3.66 -2 4 C-1.34 2.68 -0.68 1.36 0 0 Z " fill="#F24441" transform="translate(14,72)"/>
<path d="M0 0 C1.125 3.75 1.125 3.75 0 6 C-1.65 6 -3.3 6 -5 6 C-4.67 4.68 -4.34 3.36 -4 2 C-2.68 2 -1.36 2 0 2 C0 1.34 0 0.68 0 0 Z " fill="#953C3B" transform="translate(148,83)"/>
<path d="M0 0 C0.99 0 1.98 0 3 0 C2.50351065 4.46840411 2.31012244 5.68987756 -1 9 C-0.67 6.03 -0.34 3.06 0 0 Z " fill="#25657E" transform="translate(64,75)"/>
<path d="M0 0 C2 2 2 2 2.265625 3.875 C2.26046875 4.57625 2.2553125 5.2775 2.25 6 C2.25515625 6.70125 2.2603125 7.4025 2.265625 8.125 C2 10 2 10 0 12 C-1.16063604 7.74433453 -0.76173392 4.3164922 0 0 Z " fill="#FA8812" transform="translate(91,10)"/>
<path d="M0 0 C0.33 0.66 0.66 1.32 1 2 C-0.43257963 4.72872311 -1.81722366 6.81722366 -4 9 C-4.99 9 -5.98 9 -7 9 C-5.76465298 5.29395893 -3.80264776 3.66251537 -1 1 C-0.67 0.67 -0.34 0.34 0 0 Z " fill="#2C748D" transform="translate(123,80)"/>
<path d="M0 0 C2.31 0 4.62 0 7 0 C7 0.99 7 1.98 7 3 C4.69 3 2.38 3 0 3 C0 2.01 0 1.02 0 0 Z " fill="#FFFBCC" transform="translate(78,5)"/>
<path d="M0 0 C1.52299523 2.93720508 2.80100302 5.9168649 4 9 C1.5625 8.1875 1.5625 8.1875 -1 7 C-2 4 -2 4 -1.0625 1.8125 C-0.5365625 0.9153125 -0.5365625 0.9153125 0 0 Z " fill="#2F5960" transform="translate(54,115)"/>
<path d="M0 0 C2.31 0 4.62 0 7 0 C7 0.99 7 1.98 7 3 C5.02 3 3.04 3 1 3 C0.67 2.01 0.34 1.02 0 0 Z " fill="#AAAEA6" transform="translate(55,114)"/>
<path d="M0 0 C0.6875 1.625 0.6875 1.625 1 4 C-0.4375 7.25 -0.4375 7.25 -2 10 C-2.33 10 -2.66 10 -3 10 C-2.25 2.25 -2.25 2.25 0 0 Z " fill="#00C7F5" transform="translate(98,64)"/>
<path d="M0 0 C-0.33 0.99 -0.66 1.98 -1 3 C-1.33 2.34 -1.66 1.68 -2 1 C-6.29 1 -10.58 1 -15 1 C-15 0.67 -15 0.34 -15 0 C-13.06325815 -0.19517554 -11.12555991 -0.38087873 -9.1875 -0.5625 C-8.10855469 -0.66691406 -7.02960937 -0.77132812 -5.91796875 -0.87890625 C-3 -1 -3 -1 0 0 Z " fill="#C0DAD5" transform="translate(68,34)"/>
<path d="M0 0 C3.3125 -0.1875 3.3125 -0.1875 7 0 C7.99 0.99 8.98 1.98 10 3 C6.7 2.67 3.4 2.34 0 2 C0 1.34 0 0.68 0 0 Z " fill="#FC8A02" transform="translate(77,2)"/>
<path d="M0 0 C0 0.99 0 1.98 0 3 C-2.31 3 -4.62 3 -7 3 C-4.49955934 -0.00052879 -4.2621484 0 0 0 Z " fill="#605854" transform="translate(63,110)"/>
<path d="M0 0 C2.475 0.99 2.475 0.99 5 2 C5.33 1.34 5.66 0.68 6 0 C6 1.32 6 2.64 6 4 C4.35 4 2.7 4 1 4 C0.67 2.68 0.34 1.36 0 0 Z " fill="#9A3F3E" transform="translate(12,84)"/>
<path d="M0 0 C4.42857143 5.14285714 4.42857143 5.14285714 5 9 C4.34 9 3.68 9 3 9 C0.56839395 5.63316085 0 4.26649636 0 0 Z " fill="#DE3230" transform="translate(81,77)"/>
</svg>
